<svg xmlns="http://www.w3.org/2000/svg" width="41" height="41" viewBox="0 0 41 41" fill="none">
  <circle cx="20.5" cy="20.5" r="20.5" fill="#5DC26D"/>
  <g transform="translate(12, 12)">
    <path d="M16.6085 0.645775C16.4386 0.470999 16.224 0.346545 15.9882 0.286088C15.7524 0.225632 15.5046 0.231515 15.2719 0.30309L1.8419 4.54626C1.59289 4.6208 1.37151 4.76765 1.2057 4.96826C1.03989 5.16886 0.937093 5.41422 0.910298 5.67334C0.883503 5.93247 0.933909 6.19373 1.05515 6.42414C1.17639 6.65455 1.36303 6.84377 1.59149 6.9679L7.08689 9.80577L9.73258 15.4247C9.83902 15.6447 10.0044 15.8307 10.2102 15.9618C10.4161 16.0929 10.6543 16.1641 10.8981 16.1673L10.9894 16.1688C11.2509 16.1539 11.5019 16.0605 11.7097 15.9007C11.9176 15.7409 12.0727 15.5222 12.1549 15.2729L16.8964 1.99622C16.9809 1.76689 16.9988 1.5182 16.9478 1.27912C16.8968 1.04004 16.7791 0.820404 16.6085 0.645775ZM2.38682 5.8186L14.1094 2.11451L7.5288 8.49496L2.38682 5.8186ZM10.9862 14.7224L8.48027 9.48116L15.0608 3.1007L10.9862 14.7224Z" fill="white"/>
  </g>
</svg>
